<svg width="236" height="130" viewBox="0 0 236 130" fill="none" xmlns="http://www.w3.org/2000/svg">
<path fill-rule="evenodd" clip-rule="evenodd" d="M236 31.146C236 45.4707 226.272 57.5233 213.061 61.0571C216.79 65.1975 219.059 70.678 219.059 76.6885C219.059 89.5934 208.598 100.055 195.693 100.055C191.966 100.055 188.443 99.1824 185.317 97.6304C183.195 108.351 173.739 116.433 162.396 116.433C161.949 116.433 161.505 116.421 161.064 116.396C157.035 123.42 149.461 128.152 140.782 128.152C132.506 128.152 125.234 123.849 121.083 117.357C119.343 117.77 117.529 117.989 115.663 117.989C111.49 117.989 107.572 116.895 104.181 114.978C100.1 121.795 92.6421 126.358 84.1188 126.358C80.7723 126.358 77.5901 125.655 74.7121 124.388C70.6357 127.854 65.3542 129.945 59.5842 129.945C50.2761 129.945 42.2393 124.503 38.4823 116.626C34.4076 120.086 29.1307 122.174 23.3663 122.174C10.4615 122.174 0 111.712 0 98.8074C0 85.9025 10.4615 75.441 23.3663 75.441C32.6744 75.441 40.7112 80.8836 44.4682 88.7599C48.5429 85.2999 53.8198 83.2126 59.5842 83.2126C62.9307 83.2126 66.1128 83.9161 68.9909 85.1832C73.0673 81.7171 78.3488 79.6257 84.1188 79.6257C88.2922 79.6257 92.2101 80.7198 95.6012 82.6369C99.6826 75.8199 107.14 71.2564 115.663 71.2564C123.94 71.2564 131.212 75.5596 135.363 82.0508C137.102 81.6378 138.917 81.4191 140.782 81.4191C141.229 81.4191 141.673 81.4317 142.114 81.4564C146.143 74.4321 153.717 69.7005 162.396 69.7005C166.123 69.7005 169.646 70.573 172.772 72.1249C174.239 64.7144 179.211 58.5643 185.887 55.4732C178.696 49.8038 174.079 41.014 174.079 31.146C174.079 14.0471 187.941 0.185623 205.04 0.185623C222.139 0.185623 236 14.0471 236 31.146Z" fill="#F3FDFF"/>
</svg>
