<svg width="211" height="131" viewBox="0 0 211 131" fill="none" xmlns="http://www.w3.org/2000/svg">
<path fill-rule="evenodd" clip-rule="evenodd" d="M211 32.9205C211 44.1846 205.24 54.1035 196.505 59.8927C198.74 63.3279 200.039 67.4284 200.039 71.8322C200.039 83.9394 190.224 93.7542 178.117 93.7542C175.109 93.7542 172.243 93.1485 169.633 92.0524C166.539 100.406 158.5 106.359 149.07 106.359C148.659 106.359 148.25 106.348 147.844 106.326C144.24 113.496 136.816 118.417 128.244 118.417C123.058 118.417 118.293 116.616 114.539 113.605C111.712 114.934 108.556 115.676 105.226 115.676C102.467 115.676 99.8265 115.167 97.3944 114.236C94.379 122.739 86.2644 128.83 76.7273 128.83C73.5845 128.83 70.5963 128.168 67.894 126.977C64.4479 129.233 60.3278 130.545 55.9013 130.545C47.1686 130.545 39.6285 125.439 36.1037 118.05C32.2809 121.296 27.3302 123.254 21.9221 123.254C9.81485 123.254 0 113.439 0 101.332C0 89.225 9.81485 79.4101 21.9221 79.4101C30.6548 79.4101 38.1949 84.5163 41.7197 91.9058C45.5425 88.6596 50.4932 86.7013 55.9013 86.7013C59.044 86.7013 62.0323 87.3626 64.7346 88.5537C68.1806 86.2974 72.3007 84.9854 76.7273 84.9854C79.4865 84.9854 82.1267 85.4952 84.5588 86.4257C87.5742 77.9223 95.6889 71.8322 105.226 71.8322C110.412 71.8322 115.177 73.6329 118.931 76.6433C121.758 75.3149 124.914 74.5724 128.244 74.5724C128.656 74.5724 129.065 74.5838 129.471 74.6062C133.075 67.4356 140.498 62.5153 149.07 62.5153C152.078 62.5153 154.944 63.121 157.554 64.2171C158.193 62.4917 159.043 60.8686 160.073 59.3792C151.761 53.5276 146.33 43.8583 146.33 32.9205C146.33 15.0623 160.807 0.585419 178.665 0.585419C196.523 0.585419 211 15.0623 211 32.9205Z" fill="#F3FDFF" fill-opacity="0.6"/>
</svg>
